<?xml version="1.0" encoding="UTF-8"?>
<!DOCTYPE svg PUBLIC "-//W3C//DTD SVG 1.1//EN" "http://www.w3.org/Graphics/SVG/1.1/DTD/svg11.dtd">
<svg version="1.1" xmlns="http://www.w3.org/2000/svg" xmlns:xlink="http://www.w3.org/1999/xlink" width="512" height="512" viewBox="0 0 512 512">
	<path d="M475.361 420.065c0 30.485-98.181 54.784-219.115 54.784-121.416 0-219.597-24.3-219.597-54.784 0-21.719 124.518-59.423 124.518-279.572 0-32.532 26.88-58.91 59.453-58.91h70.809c32.543 0 59.423 26.378 59.423 58.91-0.010 238.213 124.508 257.853 124.508 279.572v0zM256.246 37.151c21.217 0 38.257 17.562 38.257 38.758 0 1.556 0 3.615 0 5.181h-13.957c0.543-1.567 0.543-3.625 0.543-5.181 0-13.957-10.865-25.344-24.832-25.344-13.936 0-25.293 11.377-25.293 25.344 0 1.556 0 3.615 0.502 5.181h-13.936c0-1.567 0-3.625 0-5.181-0.010-21.197 17.019-38.758 38.718-38.758v0zM256.246 375.091c-104.356 0-188.611 19.118-188.611 42.916 0 23.245 84.255 42.383 188.611 42.383 103.895 0 188.119-19.139 188.119-42.384 0-23.798-84.224-42.916-188.119-42.916v0zM301.2 383.365h-90.43c1.054 24.279 20.685 43.418 45.466 43.418 24.3 0.010 44.483-19.128 44.964-43.418z" fill="#ffffff"/>
</svg>