<?xml version="1.0" encoding="UTF-8"?>
<!DOCTYPE svg PUBLIC "-//W3C//DTD SVG 1.1//EN" "http://www.w3.org/Graphics/SVG/1.1/DTD/svg11.dtd">
<svg version="1.1" xmlns="http://www.w3.org/2000/svg" xmlns:xlink="http://www.w3.org/1999/xlink" width="512" height="512" viewBox="0 0 512 512">
	<path d="M221.501 38.339c84.050 0 151.941 68.454 151.941 152.002 0 3.328 0 7.219-0.522 10.547-7.824-1.659-15.586-2.202-23.962-2.202-73.462 0-132.997 59.535-132.997 133.028 0 3.338 0 7.24 0 10.558-17.849-0.563-35.093-4.464-51.241-11.141-26.163 44.554-57.907 62.925-114.115 53.453 30.628-21.719 47.903-55.101 51.2-100.751-19.999-25.61-32.276-57.887-32.276-93.491 0-83.548 67.922-152.002 151.972-152.002v0zM347.863 213.136c-62.914 0-114.135 50.667-114.135 113.561 0 26.163 9.472 50.647 24.494 69.581-2.786 34.509-15.534 59.577-38.37 75.714 41.707 6.666 65.669-6.687 85.166-40.11 13.373 5.581 27.812 8.356 42.854 8.356 62.331 0 113.531-51.2 113.531-113.541-0.010-62.894-51.21-113.561-113.541-113.561v0zM360.13 352.338c0 2.745 0.563 4.956 1.096 6.082 1.096 2.253 2.765 3.338 4.987 4.454 1.7 1.127 4.485 1.669 7.813 1.669 11.141 0 20.572-4.997 29.522-15.022 9.994-11.141 15.012-23.931 15.012-37.847 0-10.025-2.222-19.486-6.646-27.832-6.185-10.025-13.384-17.797-23.409-22.835-9.442-4.997-20.582-7.209-32.829-7.209-15.606 0-29.532 3.328-40.11 10.558-11.1 7.25-20.029 17.264-26.173 30.587-4.444 11.182-7.219 22.303-7.219 34.55 0 10.567 2.243 21.145 6.134 30.055 3.349 7.229 8.346 13.916 15.002 19.486 6.717 5.56 14.5 10.014 23.399 12.79 9.462 2.796 19.507 4.464 30.628 4.464 11.704 0 21.73-1.659 30.044-5.017 8.878-2.796 16.179-7.219 22.252-12.79 6.134-5.007 10.025-10.588 12.851-15.596h-13.353c-4.485 6.134-11.161 11.151-19.548 15.596-8.878 4.454-19.425 6.666-32.788 6.666-11.704 0-22.835-2.222-32.85-6.113-10.025-4.475-17.797-10.578-22.825-19.486-4.997-8.899-7.772-18.923-7.772-31.181 0-11.694 2.775-22.241 7.772-32.297 5.017-9.984 12.79-17.776 22.262-23.358 9.452-5.55 20.029-8.346 31.734-8.346 10.005 0 18.934 2.222 27.279 6.687 8.909 4.464 15.012 10.014 18.873 17.244 4.485 7.229 6.728 14.479 6.728 22.835 0 7.24-1.69 13.916-5.007 20.603-3.358 6.656-7.793 12.237-13.404 16.128-4.403 2.786-7.741 4.485-10.506 4.485-1.106 0-2.274-0.604-3.379-1.7-1.096-1.116-1.649-2.243-1.649-3.328 0-0.594 0.553-4.475 2.233-11.704l10.558-49.531h-13.384l-2.192 11.663c-2.816-4.444-6.154-8.325-10.025-10.558-3.901-2.233-7.772-3.338-12.267-3.338-5.56 0-11.684 2.243-17.234 6.134-6.144 3.881-11.192 10.005-15.053 17.797-4.454 7.793-6.134 15.586-6.134 23.368 0 6.676 1.127 12.257 3.87 17.817 2.263 5.017 6.123 8.909 10.046 11.714 3.932 2.202 8.346 3.87 12.81 3.87 3.891 0 7.803-1.096 11.684-3.318 4.505-2.233 7.824-5.581 11.172-8.899v0zM323.932 332.278c0 6.676 1.659 11.684 4.997 15.575 3.349 3.891 6.666 5.581 11.131 5.581 2.796 0 5.54-0.574 8.899-2.233 2.806-1.68 5.581-4.485 8.366-7.803 2.796-2.775 4.997-7.219 7.24-12.257 1.649-4.997 2.202-10.014 2.202-15.012 0-6.687-1.669-11.714-4.987-15.606-3.318-3.881-7.24-5.581-11.714-5.581-3.328 0-6.113 1.116-8.899 2.253-2.796 1.68-5.57 4.464-8.346 7.772-2.755 3.911-4.423 7.824-6.123 13.404-1.7 4.987-2.765 9.452-2.765 13.906z" fill="#ffffff"/>
</svg>