<?xml version="1.0" encoding="UTF-8"?>
<!DOCTYPE svg PUBLIC "-//W3C//DTD SVG 1.1//EN" "http://www.w3.org/Graphics/SVG/1.1/DTD/svg11.dtd">
<svg version="1.1" xmlns="http://www.w3.org/2000/svg" xmlns:xlink="http://www.w3.org/1999/xlink" width="512" height="512" viewBox="0 0 512 512">
	<path d="M409.241 34.038h-306.462c-37.98 0-68.741 30.74-68.741 68.721v306.462c0 37.959 30.761 68.741 68.741 68.741h306.462c37.918 0 68.721-30.781 68.721-68.741v-306.462c0-37.98-30.802-68.721-68.721-68.721zM293.55 382.178c-34.171 0-64.983-13.538-84.859-38.656-12.042-13.916-20.275-32.697-23.654-55.962h-24.054v-22.917h21.033c0-1.904 0-4.178 0-6.011 0-4.506 0.389-9.39 0.778-13.506h-21.811v-23.296h25.16c4.506-22.917 14.654-42.445 28.17-56.73 20.275-22.538 47.688-35.277 81.070-35.277 22.548 0 41.329 5.622 53.76 11.653l-9.421 34.908c-9.738-5.284-25.139-10.127-42.025-10.127-18.791 0-35.298 6.727-47.719 20.654-7.875 8.294-13.517 20.644-16.537 34.928h98.406v23.296h-102.871c-0.778 4.117-0.778 8.632-0.778 13.127 0 2.212 0 4.106 0 6.39h103.66v22.917h-99.522c2.621 16.118 8.263 28.16 16.149 36.762 12.779 13.896 30.791 20.296 50.34 20.296 18.37 0 35.645-6.4 44.278-10.896l7.885 33.444c-12.36 7.486-33.382 15.002-57.436 15.002z" fill="#ffffff"/>
</svg>